    <svg
        
          xmlns="http://www.w3.org/2000/svg"
          width="334"
          height="554"
          viewBox="0 0 334 554"
          fill="none"
        >
          <path
            d="M0.701172 94.1894H333.403V554H0.701172V94.1894Z"
            fill="#E9233A"
            fill-opacity="0.06"
          />
          <path
            fill-rule="evenodd"
            clip-rule="evenodd"
            d="M0.701172 0.350586L32.2652 37.8861C32.2652 37.8861 56.1514 55.2563 84.3031 53.2597C111.602 51.2632 139.753 55.2563 167.052 61.246C195.204 67.2357 222.502 75.222 250.654 65.2392C277.952 55.2563 306.104 28.3026 319.753 14.3266L333.403 0.350586V94.1894H319.753C306.104 94.1894 277.952 94.1894 250.654 94.1894C222.502 94.1894 195.204 94.1894 167.052 94.1894C139.753 94.1894 111.602 94.1894 84.3031 94.1894C56.1514 94.1894 28.8528 94.1894 14.3505 94.1894H0.701172V0.350586Z"
            fill="#E9233A"
            fill-opacity="0.06"
          />
        </svg>