<svg width="245" height="205" viewBox="0 0 245 205" fill="none" xmlns="http://www.w3.org/2000/svg">
<path d="M176.415 130.417C166.251 150.129 145.685 163.631 122.03 163.631C121.768 163.631 121.507 163.631 121.244 163.62C97.9211 163.334 77.6965 149.912 67.6463 130.417H40.164C51.74 164.212 83.6779 188.63 121.244 188.96C121.507 188.971 121.768 188.971 122.03 188.971C159.95 188.971 192.241 164.451 203.886 130.416H176.415V130.417ZM122.03 16.0217C121.768 16.0217 121.507 16.0217 121.244 16.0326C83.3587 16.3626 51.2053 41.2017 39.8906 75.419H67.2248C77.1258 55.4798 97.578 41.67 121.244 41.3738C121.507 41.3629 121.768 41.3629 122.03 41.3629C146.027 41.3629 166.821 55.2641 176.836 75.4201H204.17C192.776 40.9632 160.269 16.0217 122.03 16.0217Z" fill="#494949"/>
<path d="M177.988 102.503C177.988 110.878 176.131 118.831 172.814 125.975C163.927 145.129 144.512 158.449 122.031 158.449C121.768 158.449 121.507 158.449 121.244 158.438C99.1063 158.142 80.0318 144.901 71.2472 125.976C67.9309 118.832 66.0859 110.879 66.0859 102.504C66.0859 94.4478 67.7947 86.7794 70.8714 79.8528C79.4851 60.4712 98.7872 46.8672 121.244 46.559C121.507 46.5481 121.768 46.5481 122.031 46.5481C144.83 46.5481 164.485 60.2555 173.19 79.8528C176.278 86.7783 177.988 94.4467 177.988 102.503Z" fill="#727272"/>
<path d="M217.717 110.877C221.614 110.08 224.543 106.627 224.543 102.491C224.543 98.3663 221.614 94.9139 217.717 94.1276C221.42 92.6693 223.7 88.7605 222.982 84.7047C222.629 82.7563 221.649 81.0812 220.281 79.8505C218.811 78.5066 216.874 77.6974 214.801 77.6397C218.196 75.5551 219.78 71.3164 218.355 67.4424C216.943 63.5685 213.012 61.3239 209.093 61.9044C212.066 59.272 212.875 54.8176 210.801 51.2508C208.751 47.6612 204.478 46.1571 200.707 47.4107C203.179 44.2882 203.214 39.7761 200.558 36.609C197.892 33.4419 193.437 32.6784 189.951 34.5811C191.842 31.0829 191.09 26.6285 187.923 23.9841C184.767 21.318 180.232 21.3409 177.133 23.8131C178.387 20.0416 176.86 15.7919 173.293 13.7183C169.715 11.6675 165.26 12.4767 162.616 15.45C163.209 11.5194 160.976 7.58777 157.101 6.17521C153.204 4.76264 148.966 6.33421 146.904 9.71913C146.779 5.74283 143.896 2.26751 139.84 1.54979C135.772 0.832076 131.865 3.12245 130.405 6.80251C129.608 2.91661 126.156 0 122.03 0C121.768 0 121.494 0.0108974 121.244 0.0337684C117.461 0.375746 114.407 3.16709 113.667 6.80142C112.197 3.12135 108.312 0.830979 104.232 1.5487C100.164 2.26641 97.2814 5.74173 97.179 9.71803C95.0825 6.3342 90.8557 4.76155 86.9698 6.17411C83.0959 7.58667 80.8621 11.5183 81.4437 15.4489C78.8005 12.4745 74.3678 11.6664 70.7792 13.7172C67.2016 15.7908 65.6866 20.0405 66.9511 23.8121C63.8177 21.3398 59.3056 21.3169 56.1385 23.983C52.9823 26.6263 52.2188 31.0818 54.1106 34.58C50.6244 32.6773 46.1689 33.4408 43.5137 36.6079C40.8475 39.775 40.8813 44.2871 43.3536 47.4096C39.594 46.156 35.3323 47.6601 33.2587 51.2497C31.196 54.8165 32.0171 59.2709 34.9904 61.9033C31.0478 61.3217 27.1282 63.5664 25.7036 67.4414C24.302 71.3153 25.8637 75.554 29.2584 77.6386C27.1957 77.6952 25.2593 78.5044 23.7781 79.8495C22.4113 81.0802 21.4311 82.7552 21.0891 84.7036C20.3594 88.7605 22.6498 92.6682 26.3527 94.1265C22.4668 94.9128 19.5273 98.3652 19.5273 102.49C19.5273 106.626 22.4668 110.078 26.3527 110.876C22.6498 112.323 20.3594 116.231 21.0891 120.287C21.5106 122.713 22.9232 124.73 24.8487 125.973C26.136 126.816 27.6629 127.306 29.2584 127.352C25.8626 129.436 24.302 133.675 25.7036 137.549C27.1282 141.446 31.0478 143.679 34.9904 143.086C32.016 145.718 31.196 150.173 33.2587 153.739C35.3323 157.329 39.594 158.855 43.3536 157.59C40.8813 160.701 40.8465 165.213 43.5137 168.38C46.1689 171.547 50.6233 172.3 54.1106 170.408C52.2188 173.906 52.9823 178.361 56.1385 181.028C59.3056 183.671 63.8177 183.648 66.9511 181.176C65.6866 184.948 67.2016 189.197 70.7792 191.271C74.3689 193.322 78.8005 192.512 81.4437 189.539C80.8621 193.47 83.0959 197.412 86.9698 198.814C90.8557 200.227 95.0825 198.655 97.179 195.27C97.2814 199.246 100.164 202.722 104.232 203.439C108.311 204.157 112.197 201.867 113.667 198.176C114.407 201.822 117.461 204.624 121.244 204.966C121.494 204.989 121.768 205 122.03 205C126.154 205 129.607 202.071 130.405 198.175C131.864 201.867 135.772 204.156 139.84 203.438C143.896 202.721 146.779 199.245 146.904 195.269C148.967 198.653 153.204 200.225 157.101 198.813C160.975 197.411 163.209 193.469 162.616 189.538C165.26 192.511 169.715 193.321 173.293 191.27C176.86 189.196 178.385 184.946 177.133 181.175C180.233 183.647 184.767 183.67 187.923 181.027C191.091 178.361 191.842 173.905 189.951 170.407C193.437 172.299 197.892 171.546 200.558 168.379C203.214 165.212 203.179 160.7 200.707 157.589C204.478 158.854 208.751 157.327 210.801 153.738C212.875 150.172 212.066 145.717 209.093 143.085C213.012 143.677 216.943 141.443 218.355 137.548C219.78 133.674 218.196 129.435 214.801 127.351C216.396 127.305 217.923 126.815 219.21 125.972C221.136 124.73 222.548 122.713 222.982 120.286C223.7 116.232 221.421 112.324 217.717 110.877ZM122.03 194.156C121.768 194.156 121.506 194.156 121.244 194.145C79.1544 193.792 43.7522 164.942 33.4177 125.974C31.4236 118.477 30.3639 110.603 30.3639 102.491C30.3639 94.6862 31.3441 87.0974 33.201 79.8505C43.2392 40.4731 78.8571 11.2014 121.243 10.8474C121.505 10.8365 121.767 10.8365 122.029 10.8365C164.768 10.8365 200.762 40.2335 210.857 79.8505C212.714 87.0974 213.694 94.6852 213.694 102.491C213.694 110.603 212.634 118.477 210.64 125.974C200.25 165.181 164.473 194.156 122.03 194.156Z" fill="#E53838"/>
<path d="M228.007 102.822L244.072 125.974H0L16.0653 102.822L0 79.8503H244.072L228.007 102.822Z" fill="#E53838"/>
<path d="M52.5348 65.3577L53.6435 67.6045L56.1222 67.9649L54.3285 69.713L54.7522 72.182L52.5348 71.0166L50.3173 72.182L50.741 69.713L48.9473 67.9649L51.4261 67.6045L52.5348 65.3577Z" fill="white"/>
<path d="M60.8941 53.8491L62.0028 56.0959L64.4816 56.4564L62.6879 58.2044L63.1115 60.6734L60.8941 59.5081L58.6767 60.6734L59.1004 58.2044L57.3066 56.4564L59.7854 56.0959L60.8941 53.8491Z" fill="white"/>
<path d="M69.4469 43.3721L70.5556 45.6189L73.0344 45.9783L71.2406 47.7274L71.6643 50.1964L69.4469 49.031L67.2295 50.1964L67.6531 47.7274L65.8594 45.9783L68.3382 45.6189L69.4469 43.3721Z" fill="white"/>
<path d="M189.488 65.3577L188.379 67.6045L185.9 67.9649L187.694 69.713L187.27 72.182L189.488 71.0166L191.705 72.182L191.282 69.713L193.075 67.9649L190.597 67.6045L189.488 65.3577Z" fill="white"/>
<path d="M181.129 53.8491L180.02 56.0959L177.541 56.4564L179.335 58.2044L178.911 60.6734L181.129 59.5081L183.346 60.6734L182.922 58.2044L184.716 56.4564L182.237 56.0959L181.129 53.8491Z" fill="white"/>
<path d="M172.576 43.3721L171.467 45.6189L168.988 45.9783L170.782 47.7274L170.358 50.1964L172.576 49.031L174.793 50.1964L174.37 47.7274L176.163 45.9783L173.684 45.6189L172.576 43.3721Z" fill="white"/>
<path d="M56.1146 132.697L53.6424 133.062L52.5369 135.306L51.4195 133.062L48.9473 132.697L50.7367 130.953L50.6452 130.417L50.3152 128.481L52.5369 129.643L54.7467 128.481L54.4167 130.417L54.3252 130.953L56.1146 132.697Z" fill="white"/>
<path d="M60.8922 146.815L62.0009 144.568L64.4797 144.208L62.6859 142.46L63.1096 139.991L60.8922 141.156L58.6748 139.991L59.0984 142.46L57.3047 144.208L59.7835 144.568L60.8922 146.815Z" fill="white"/>
<path d="M69.4449 157.292L70.5536 155.045L73.0324 154.686L71.2387 152.937L71.6623 150.468L69.4449 151.633L67.2275 150.468L67.6512 152.937L65.8574 154.686L68.3362 155.045L69.4449 157.292Z" fill="white"/>
<path d="M189.488 135.306L188.379 133.06L185.9 132.699L187.694 130.951L187.27 128.482L189.488 129.648L191.705 128.482L191.282 130.951L193.075 132.699L190.597 133.06L189.488 135.306Z" fill="white"/>
<path d="M181.129 146.815L180.02 144.568L177.541 144.207L179.335 142.459L178.911 139.99L181.129 141.156L183.346 139.99L182.922 142.459L184.716 144.207L182.237 144.568L181.129 146.815Z" fill="white"/>
<path d="M172.576 157.292L171.467 155.045L168.988 154.686L170.782 152.937L170.358 150.468L172.576 151.633L174.793 150.468L174.37 152.937L176.163 154.686L173.684 155.045L172.576 157.292Z" fill="white"/>
<g opacity="0.9">
<path opacity="0.25" d="M33.2023 79.8506H70.8709C79.4846 60.469 98.7867 46.8651 121.244 46.5569V158.436C99.1058 158.139 80.0313 144.899 71.2467 125.974H33.419C43.7535 164.942 79.1546 193.792 121.245 194.145V204.97C117.463 204.628 114.409 201.825 113.668 198.179C112.198 201.871 108.313 204.16 104.233 203.443C100.166 202.725 97.2827 199.25 97.1803 195.273C95.0838 198.657 90.857 200.23 86.9711 198.817C83.0972 197.416 80.8634 193.473 81.445 189.543C78.8018 192.516 74.3691 193.325 70.7805 191.274C67.2029 189.201 65.6879 184.951 66.9524 181.179C63.819 183.652 59.3069 183.674 56.1398 181.031C52.9836 178.365 52.2201 173.91 54.1119 170.411C50.6257 172.303 46.1702 171.551 43.5149 168.383C40.8488 165.216 40.8826 160.704 43.3548 157.594C39.5953 158.858 35.3336 157.331 33.26 153.743C31.1972 150.176 32.0184 145.722 34.9917 143.089C31.0491 143.682 27.1295 141.448 25.7049 137.552C24.3032 133.678 25.865 129.439 29.2597 127.355C27.6642 127.309 26.1373 126.819 24.85 125.976H0L16.0653 102.823L0 79.8528H23.7794C25.2606 78.5089 27.1981 77.6997 29.2597 77.642C25.8639 75.5574 24.3032 71.3186 25.7049 67.4447C27.1295 63.5708 31.0491 61.3262 34.9917 61.9067C32.0173 59.2743 31.1972 54.8199 33.26 51.2531C35.3336 47.6634 39.5953 46.1594 43.3548 47.4129C40.8826 44.2905 40.8477 39.7783 43.5149 36.6112C46.1702 33.4441 50.6246 32.6807 54.1119 34.5833C52.2201 31.0851 52.9836 26.6307 56.1398 23.9864C59.3069 21.3203 63.819 21.3432 66.9524 23.8154C65.6879 20.0439 67.2029 15.7942 70.7805 13.7205C74.3702 11.6698 78.8018 12.479 81.445 15.4522C80.8634 11.5216 83.0972 7.59001 86.9711 6.17745C90.857 4.76489 95.0838 6.33646 97.1803 9.72138C97.2827 5.74507 100.166 2.26975 104.233 1.55204C108.312 0.83432 112.198 3.12473 113.668 6.80479C114.409 3.17047 117.463 0.377997 121.245 0.0371094V10.8497C78.8584 11.2015 43.2405 40.4732 33.2023 79.8506Z" fill="#0A0321"/>
<path opacity="0.25" d="M121.244 163.62V188.96C83.6779 188.63 51.7401 164.212 40.1641 130.418H50.6466L50.3166 128.48L52.5384 129.642L54.7493 128.48L54.4193 130.418H67.6475C77.6966 149.913 97.9212 163.336 121.244 163.62Z" fill="#0A0321"/>
<path opacity="0.25" d="M121.244 16.0327V41.3728C97.5791 41.669 77.1258 55.4788 67.2248 75.418H39.8906C51.2053 41.2018 83.3587 16.3627 121.244 16.0327Z" fill="#0A0321"/>
</g>
<path d="M40.963 118V91.8261H47.5511C48.9193 91.8261 49.9405 92.0938 50.6147 92.6292C51.2888 93.1645 51.73 93.9478 51.9382 94.9789C52.1563 96.01 52.2654 97.2691 52.2654 98.7562C52.2654 100.293 52.1068 101.503 51.7895 102.385C51.4822 103.257 50.8477 103.842 49.886 104.14C50.342 104.219 50.7237 104.407 51.0311 104.705C51.3384 104.992 51.5863 105.419 51.7746 105.984C51.963 106.539 52.0969 107.258 52.1762 108.14C52.2654 109.013 52.31 110.083 52.31 111.352C52.31 111.452 52.31 111.729 52.31 112.185C52.31 112.641 52.31 113.182 52.31 113.806C52.3199 114.421 52.3299 115.036 52.3398 115.65C52.3497 116.265 52.3646 116.79 52.3844 117.227C52.4042 117.663 52.429 117.921 52.4587 118H48.4732C48.4434 117.95 48.4186 117.698 48.3988 117.242C48.3889 116.776 48.374 116.186 48.3542 115.472C48.3443 114.758 48.3344 113.99 48.3245 113.167C48.3245 112.344 48.3245 111.536 48.3245 110.743C48.3245 109.94 48.3245 109.231 48.3245 108.616C48.3245 107.833 48.265 107.243 48.146 106.846C48.0369 106.44 47.8287 106.157 47.5214 105.999C47.224 105.84 46.7927 105.746 46.2276 105.716L44.9486 105.642V118H40.963ZM44.9635 102.548H46.5547C47.0405 102.548 47.4074 102.439 47.6552 102.221C47.913 102.003 48.0865 101.602 48.1757 101.017C48.2749 100.432 48.3245 99.589 48.3245 98.4885V98.325C48.3245 97.4029 48.2798 96.6941 48.1906 96.1983C48.1014 95.7026 47.913 95.3606 47.6255 95.1722C47.3479 94.9838 46.9117 94.8896 46.3168 94.8896H44.9635V102.548ZM57.543 118V91.8261H66.3172V95.2614H61.5286V102.876H66.0793V106.237H61.5286V114.565H66.4957V118H57.543ZM76.6363 118.297C75.3672 118.297 74.3114 118.005 73.4686 117.42C72.6259 116.835 71.9914 115.982 71.5651 114.862C71.1487 113.732 70.9405 112.369 70.9405 110.772V99.366C70.9405 98.1663 71.0396 97.0857 71.2379 96.124C71.4362 95.1623 71.7584 94.3394 72.2046 93.6553C72.6507 92.9712 73.2456 92.4457 73.9891 92.0789C74.7327 91.7121 75.6498 91.5287 76.7404 91.5287C77.7318 91.5287 78.5745 91.6923 79.2685 92.0194C79.9725 92.3367 80.5425 92.7977 80.9788 93.4025C81.4249 94.0073 81.7471 94.7409 81.9454 95.6035C82.1536 96.4561 82.2577 97.4178 82.2577 98.4885V102.087H78.406V98.7414C78.406 97.4525 78.2969 96.5057 78.0788 95.9009C77.8607 95.2862 77.4245 94.9789 76.7701 94.9789C76.0464 94.9789 75.5606 95.311 75.3127 95.9753C75.0748 96.6296 74.9558 97.5467 74.9558 98.7265V110.951C74.9558 111.863 75.0054 112.612 75.1045 113.196C75.2136 113.772 75.392 114.198 75.6399 114.475C75.8877 114.743 76.2347 114.877 76.6809 114.877C77.3551 114.877 77.8111 114.56 78.0491 113.925C78.287 113.291 78.406 112.284 78.406 110.906V107.159H82.3172V110.862C82.3172 112.517 82.1239 113.9 81.7372 115.011C81.3506 116.111 80.7359 116.934 79.8931 117.479C79.0603 118.025 77.9747 118.297 76.6363 118.297ZM93.0229 118.297C91.6647 118.297 90.5543 118.01 89.6917 117.435C88.8391 116.86 88.2095 116.007 87.803 114.877C87.3965 113.747 87.1933 112.349 87.1933 110.683V98.7116C87.1933 97.2046 87.3916 95.9158 87.7881 94.845C88.1847 93.7743 88.8143 92.9514 89.6768 92.3763C90.5394 91.8013 91.6696 91.5138 93.0675 91.5138C94.1185 91.5138 95.0058 91.6774 95.7295 92.0046C96.4533 92.3317 97.0382 92.8076 97.4844 93.4322C97.9305 94.0469 98.2527 94.8004 98.451 95.6927C98.6592 96.5751 98.7633 97.5814 98.7633 98.7116V110.683C98.7633 112.349 98.565 113.747 98.1685 114.877C97.7818 116.007 97.1671 116.86 96.3244 117.435C95.4817 118.01 94.3812 118.297 93.0229 118.297ZM93.0229 114.847C93.5186 114.847 93.8904 114.699 94.1383 114.401C94.3861 114.104 94.5497 113.653 94.6291 113.048C94.7183 112.433 94.7629 111.66 94.7629 110.728V98.5332C94.7629 97.393 94.6538 96.5156 94.4357 95.9009C94.2275 95.2763 93.7715 94.964 93.0675 94.964C92.3438 94.964 91.853 95.2664 91.5953 95.8712C91.3375 96.466 91.2086 97.3484 91.2086 98.5183V110.728C91.2086 111.68 91.2483 112.463 91.3276 113.078C91.4168 113.682 91.5903 114.128 91.8481 114.416C92.1158 114.703 92.5074 114.847 93.0229 114.847ZM104.219 118V91.8261H109.172L112.89 110.951L116.384 91.8261H121.366V118H117.812V108.244L117.961 99.2916L114.436 117.881H111.269L107.595 99.2916L107.744 108.244V118H104.219ZM127.135 118V91.8261H132.087L135.805 110.951L139.3 91.8261H144.282V118H140.727V108.244L140.876 99.2916L137.351 117.881H134.184L130.51 99.2916L130.659 108.244V118H127.135ZM150.05 118V91.8261H153.173L158.72 107.53L158.437 100.392V91.8261H162.021V118H159.196L153.5 101.745L153.723 108.616V118H150.05ZM167.79 118V91.8261H173.664C174.993 91.8261 176.058 92.0938 176.861 92.6292C177.665 93.1546 178.245 93.918 178.601 94.9194C178.968 95.9207 179.152 97.1303 179.152 98.548L179.167 110.356C179.167 112.071 178.978 113.499 178.601 114.639C178.235 115.769 177.64 116.612 176.817 117.167C175.994 117.722 174.898 118 173.53 118H167.79ZM171.775 114.907H173.084C173.55 114.907 173.937 114.813 174.244 114.624C174.561 114.436 174.794 114.104 174.943 113.628C175.102 113.142 175.181 112.458 175.181 111.575L175.166 98.6521C175.166 97.3137 175.003 96.352 174.675 95.7671C174.348 95.1821 173.773 94.8896 172.95 94.8896H171.775V114.907ZM184.608 118V91.8261H193.382V95.2614H188.593V102.876H193.144V106.237H188.593V114.565H193.56V118H184.608ZM198.332 118V91.8261H204.207C205.535 91.8261 206.601 92.0938 207.404 92.6292C208.207 93.1546 208.787 93.918 209.144 94.9194C209.511 95.9207 209.694 97.1303 209.694 98.548L209.709 110.356C209.709 112.071 209.521 113.499 209.144 114.639C208.777 115.769 208.182 116.612 207.359 117.167C206.537 117.722 205.441 118 204.073 118H198.332ZM202.318 114.907H203.627C204.093 114.907 204.479 114.813 204.787 114.624C205.104 114.436 205.337 114.104 205.486 113.628C205.644 113.142 205.724 112.458 205.724 111.575L205.709 98.6521C205.709 97.3137 205.545 96.352 205.218 95.7671C204.891 95.1821 204.316 94.8896 203.493 94.8896H202.318V114.907Z" fill="white"/>
</svg>
