<svg width="80" height="80" viewBox="0 0 80 80" fill="none" xmlns="http://www.w3.org/2000/svg">
<path d="M56.6939 15.5788C54.8384 12.2355 52.615 10.541 50.085 10.541C47.1739 10.541 44.1506 12.8332 41.0961 17.3555C40.7168 17.9185 40.3515 18.4909 40.0006 19.0721C39.65 18.4907 39.2847 17.9183 38.905 17.3555C35.8517 12.8332 32.8272 10.541 29.9161 10.541C27.3872 10.541 25.1628 12.2355 23.3072 15.5788C21.9206 18.081 22.035 20.0455 22.6984 21.111C23.895 23.0332 26.9539 24.161 31.2584 24.901C34.5639 25.471 38.0606 25.5555 39.8517 25.5555H40.1506C41.9406 25.5555 45.4384 25.471 48.7428 24.901C53.0461 24.161 56.105 23.0321 57.3028 21.111C57.9639 20.0443 58.0817 18.081 56.6939 15.5788Z" fill="#EF4C3C"/>
<path d="M17.7773 40H61.1107V67.7778H17.7773V40Z" fill="#F0C236"/>
<path d="M59.3251 39.4443L18.8906 39.5088V45.6199L49.0495 49.9854L61.1128 51.6666V39.5088L59.3251 39.4443Z" fill="#F0C236"/>
<path d="M33.0156 66.6667H46.9845V49.1923L33.0156 46.429V66.6667Z" fill="#EA5A47"/>
<path d="M15.5547 23.3333H64.4436V38.8888H15.5547V23.3333Z" fill="#F0C236"/>
<path d="M33.0156 24.4443H46.9834V38.8888H33.0156V24.4443Z" fill="#EA5A47"/>
<path d="M46.9845 39.4443L33.0156 39.4666V47.6377L46.9845 49.6743V39.4443Z" fill="#EF4C3C"/>
<path d="M18.1736 39.4444H15.5547V23.7299H19.2836H60.1002H64.4436V39.4444H61.8247V67.381H18.1736V39.4444ZM18.1736 39.4444H62.698M56.6225 20.2777C57.0491 19.1888 57.1691 17.6188 56.078 15.5788C54.2914 12.2355 52.1491 10.541 49.7136 10.541C46.908 10.541 43.9958 12.8332 41.0536 17.3555C40.6878 17.919 40.3358 18.4914 39.998 19.0721C39.661 18.4911 39.3094 17.9187 38.9436 17.3555C36.0025 12.8332 33.0891 10.541 30.2847 10.541C27.848 10.541 25.7069 12.2355 23.918 15.5788C22.9169 17.4566 22.9369 18.9355 23.2802 20.0088" stroke="#333333" stroke-opacity="0.5" stroke-width="0.666667" stroke-miterlimit="10" stroke-linecap="round" stroke-linejoin="round"/>
<path d="M46.9845 66.6666V49.1921M33.0156 46.4288V66.6666M46.9845 38.8888V24.4443M33.0156 24.4443V38.8888M46.9845 49.6743V39.4443L33.0156 39.4666V47.6377" stroke="#333333" stroke-opacity="0.5" stroke-width="0.666667" stroke-miterlimit="10"/>
</svg>
