<svg width="49" height="61" viewBox="0 0 49 61" fill="none" xmlns="http://www.w3.org/2000/svg">
<path d="M33.5413 17.6639C35.0416 18.6337 36.825 19.2019 38.7396 19.2019C44.0395 19.2019 48.3528 14.8941 48.3528 9.59992C48.3528 4.30597 44.0395 0 38.7396 0C33.4393 0 29.1279 4.30597 29.1279 9.59992C29.1279 10.4902 29.2586 11.348 29.488 12.168L23.7913 16.2096L14.7679 22.6104C13.4218 21.8946 11.8917 21.4851 10.2602 21.4851C4.96081 21.4851 0.648438 25.7916 0.648438 31.085C0.648438 36.3791 4.96081 40.6848 10.2602 40.6848C12.5461 40.6848 14.647 39.8829 16.297 38.5463L23.7913 43.8619L29.488 47.9035C29.2587 48.7211 29.1279 49.5784 29.1279 50.4692C29.1279 55.7632 33.4394 60.071 38.7396 60.071C44.0395 60.071 48.3528 55.7632 48.3528 50.4692C48.3528 45.1773 44.0395 40.869 38.7396 40.869C36.8226 40.869 35.0359 41.4397 33.5356 42.4086L25.3804 36.6221L19.7399 32.6204C19.8201 32.1191 19.8739 31.6095 19.8739 31.085C19.8739 29.9246 19.655 28.815 19.2766 27.784L25.3805 23.4528L33.5413 17.6639ZM38.5273 4.09627C41.512 4.09627 43.9357 6.51829 43.9357 9.50512C43.9357 12.4941 41.512 14.9163 38.5273 14.9163C35.5384 14.9163 33.1157 12.4941 33.1157 9.50512C33.1157 6.51829 35.5384 4.09627 38.5273 4.09627ZM10.1497 36.8098C7.16033 36.8098 4.73854 34.3878 4.73854 31.3991C4.73854 28.412 7.16033 25.9897 10.1497 25.9897C13.1363 25.9897 15.5577 28.412 15.5577 31.3991C15.5577 34.3877 13.1363 36.8098 10.1497 36.8098ZM38.5273 45.1344C41.512 45.1344 43.9357 47.5562 43.9357 50.5435C43.9357 53.5326 41.512 55.9544 38.5273 55.9544C35.5384 55.9544 33.1157 53.5326 33.1157 50.5435C33.1157 47.5562 35.5384 45.1344 38.5273 45.1344Z" fill="#4B4D4F"/>
<path d="M33.1152 50.5439C33.1152 53.533 35.538 55.9548 38.5269 55.9548C41.5115 55.9548 43.9352 53.533 43.9352 50.5439C43.9352 47.5566 41.5115 45.1348 38.5269 45.1348C35.538 45.1348 33.1152 47.5566 33.1152 50.5439Z" fill="#F4C63B"/>
<path d="M4.74219 31.3988C4.74219 34.3875 7.16397 36.8096 10.1534 36.8096C13.14 36.8096 15.5613 34.3875 15.5613 31.3988C15.5613 28.4118 13.14 25.9895 10.1534 25.9895C7.16405 25.9895 4.74219 28.4118 4.74219 31.3988Z" fill="#F4C63B"/>
<path d="M33.1152 9.50529C33.1152 12.4942 35.538 14.9165 38.5269 14.9165C41.5115 14.9165 43.9352 12.4942 43.9352 9.50529C43.9352 6.51854 41.5115 4.09644 38.5269 4.09644C35.538 4.09651 33.1152 6.51854 33.1152 9.50529Z" fill="#F4C63B"/>
</svg>
