<svg width="57" height="58" viewBox="0 0 57 58" fill="none" xmlns="http://www.w3.org/2000/svg">
<path d="M11.6723 19.0863C11.6862 19.0863 11.6997 19.0856 11.7132 19.0852C12.1538 24.7042 17.5027 29.9696 22.3443 29.9696C27.094 29.9696 32.527 24.7042 32.975 19.0852C32.9888 19.0856 33.0023 19.0863 33.0161 19.0863C34.0432 19.0863 34.8756 18.2539 34.8756 17.2265C34.8756 15.9414 35.372 15.0116 35.372 13.9645C35.372 12.749 34.3865 11.7635 33.1707 11.7635C33.1149 11.7635 33.0595 11.766 33.0045 11.7704C33.0045 11.7704 33.0828 10.8928 33.0828 10.06C33.0828 3.79481 29.0876 0 23.2167 0H21.4717C15.6009 0 11.6056 3.79481 11.6056 10.06C11.6056 10.8928 11.684 11.7704 11.684 11.7704C11.6289 11.766 11.5735 11.7635 11.5178 11.7635C10.3019 11.7635 9.31641 12.749 9.31641 13.9645C9.31641 15.0116 9.81281 15.9414 9.81281 17.2265C9.81284 18.2539 10.6453 19.0863 11.6723 19.0863Z" fill="#ECC034"/>
<path d="M52.6451 35.9575C50.2368 33.5492 47.0346 32.2228 43.6287 32.2228C41.7522 32.2228 39.938 32.6262 38.2839 33.3906C35.2839 30.8055 31.7412 29.3459 30.6273 28.9255C28.1169 31.3167 25.1192 32.6793 22.3415 32.6793C19.532 32.6793 16.5242 31.321 14.026 28.9367C12.7498 29.4208 8.55013 31.1704 5.41563 34.3012C3.44544 36.2693 1.95241 39.4372 0.981118 41.9943C-0.0161778 44.6182 1.12109 47.5751 3.6183 48.8571C7.05608 50.6226 12.981 52.0589 22.3415 52.0589C26.3646 52.0589 29.7525 51.7936 32.5814 51.3508C33.1335 52.3036 33.8129 53.1909 34.6124 53.9904C37.0207 56.3988 40.2229 57.7251 43.6288 57.7251C47.0347 57.7251 50.2368 56.3988 52.6451 53.9904C55.0535 51.582 56.3799 48.3799 56.3799 44.974C56.3799 41.568 55.0535 38.3659 52.6451 35.9575ZM43.6287 55.6043C37.7672 55.6043 32.9984 50.8355 32.9984 44.9739C32.9984 39.1124 37.7672 34.3436 43.6287 34.3436C49.4903 34.3436 54.2591 39.1123 54.2591 44.9739C54.2591 50.8355 49.4903 55.6043 43.6287 55.6043Z" fill="#ECC034"/>
<path d="M48.843 44.0729H44.5342V39.7641C44.5342 39.2664 44.1307 38.8628 43.6329 38.8628C43.1351 38.8628 42.7316 39.2663 42.7316 39.7641V44.0729H38.4228C37.925 44.0729 37.5215 44.4764 37.5215 44.9742C37.5215 45.472 37.925 45.8756 38.4228 45.8756H42.7316V50.1843C42.7316 50.6821 43.1351 51.0857 43.6329 51.0857C44.1307 51.0857 44.5342 50.6821 44.5342 50.1843V45.8756H48.843C49.3408 45.8756 49.7443 45.472 49.7443 44.9742C49.7443 44.4764 49.3407 44.0729 48.843 44.0729Z" fill="#ECC034"/>
</svg>
