<svg width="65" height="65" viewBox="0 0 65 65" fill="none" xmlns="http://www.w3.org/2000/svg">
<path d="M32.5 31.7383V62.1753L30.4688 63.1909L4.0625 50.0195V17.0117L30.4688 3.80859L56.875 17.0117V40.625H52.8125V21.582L32.5 31.7383ZM30.4688 8.37891L22.8198 12.1875L42.5293 22.1533L50.3052 18.2812L30.4688 8.37891ZM28.4375 57.6367V31.7383L8.125 21.582V47.4805L28.4375 57.6367ZM10.6323 18.2812L30.4688 28.1836L38.0225 24.4385L18.2812 14.4727L10.6323 18.2812ZM44.6875 56.875V52.8125H65V56.875H44.6875ZM44.6875 44.6875H65V48.75H44.6875V44.6875ZM36.5625 65V60.9375H40.625V65H36.5625ZM36.5625 48.75V44.6875H40.625V48.75H36.5625ZM36.5625 56.875V52.8125H40.625V56.875H36.5625ZM44.6875 65V60.9375H65V65H44.6875Z" fill="#ECC034"/>
</svg>
